# xmcd CD database file
#
# Track frame offsets:
#	183
#	10118
#	26983
#	39300
#	53420
#	64340
#	73533
#	86805
#	97138
#	108530
#	120563
#	132460
#	144208
#	154343
#	167665
#	177663
#	191525
#	199918
#
# Disc length: 2827 seconds
#
# Revision: 2
# Processed by: cddbd v1.5.2PL0 Copyright (c) Steve Scherf et al.
# Submitted via: CDex 1.51
#
DISCID=040b0912
DTITLE=Various Artist - Country Music
DYEAR=1991
DGENRE=Country
TTITLE0=West Virginia Woman/Bobby Bare
TTITLE1=Help Me Make It Through Night/Freddy Quinn
TTITLE2=If I Cloud Change Mary´s Mind/Dave Dudley
TTITLE3=Little Tom/Ferlin Husky
TTITLE4=The Puppy And The Parakeet/Bobby Bare
TTITLE5=I´m Coming Back In Style/Buddy Meredith
TTITLE6=Mama Bake a Pie, Daddy Kill a Chicken/George Kent
TTITLE7=The Night You Broke The News/Dava Dudley
TTITLE8=Mabel, You Have Been A Friend To Me/Billy Grammer
TTITLE9=On Top Of Old Smoky/Freddy Quinn
TTITLE10=Good Old Song/Bobby Lord
TTITLE11=Please Don´t Tell Me How The Story Ends/Bobby Bare
TTITLE12=I Was On My Way/Bud Logan
TTITLE13=If Only For A Moment/Linda Manning
TTITLE14=Oh, My Darlin´Clementine/Bobby Joe Bratcher
TTITLE15=Doogie Ray/George Kent
TTITLE16=Oh, Susanna/Bobby Joe Bratcher
TTITLE17=How Come It Took So Long To Say Goodbye/Dave Dudley
EXTD=YEAR: 1991
EXTT0=
EXTT1=
EXTT2=
EXTT3=
EXTT4=
EXTT5=
EXTT6=
EXTT7=
EXTT8=
EXTT9=
EXTT10=
EXTT11=
EXTT12=
EXTT13=
EXTT14=
EXTT15=
EXTT16=
EXTT17=
PLAYORDER=
